<svg width="204" height="204" viewBox="0 0 204 204" fill="none" xmlns="http://www.w3.org/2000/svg">
<path d="M0 8C0 3.58172 3.58172 0 8 0H196C200.418 0 204 3.58172 204 8V196C204 200.418 200.418 204 196 204H8C3.58172 204 0 200.418 0 196V8Z" fill="#A1A1AA"/>
<path fill-rule="evenodd" clip-rule="evenodd" d="M91.6667 89.0833C91.6667 86.3428 92.7554 83.7144 94.6932 81.7766C96.6311 79.8387 99.2594 78.75 102 78.75C104.741 78.75 107.369 79.8387 109.307 81.7766C111.245 83.7144 112.333 86.3428 112.333 89.0833C112.333 91.8239 111.245 94.4522 109.307 96.3901C107.369 98.328 104.741 99.4167 102 99.4167C99.2594 99.4167 96.6311 98.328 94.6932 96.3901C92.7554 94.4522 91.6667 91.8239 91.6667 89.0833ZM91.6667 104.583C88.241 104.583 84.9555 105.944 82.5332 108.367C80.1109 110.789 78.75 114.074 78.75 117.5C78.75 119.555 79.5665 121.527 81.0199 122.98C82.4733 124.433 84.4446 125.25 86.5 125.25H117.5C119.555 125.25 121.527 124.433 122.98 122.98C124.433 121.527 125.25 119.555 125.25 117.5C125.25 114.074 123.889 110.789 121.467 108.367C119.044 105.944 115.759 104.583 112.333 104.583H91.6667Z" fill="#D4D4D9"/>
</svg>
