<svg width="32" height="44" viewBox="0 0 32 44" fill="none" xmlns="http://www.w3.org/2000/svg">
<path d="M16.0268 9.88C11.6135 9.88 8.02678 13.4667 8.02678 17.88V21.7333C8.02678 22.5467 7.68012 23.7867 7.26678 24.48L5.73345 27.0267C4.78678 28.6 5.44012 30.3467 7.17345 30.9333C12.9201 32.8533 19.1201 32.8533 24.8668 30.9333C26.4801 30.4 27.1868 28.4933 26.3068 27.0267L24.7734 24.48C24.3734 23.7867 24.0268 22.5467 24.0268 21.7333V17.88C24.0268 13.48 20.4268 9.88 16.0268 9.88Z" stroke="white" stroke-width="1.5" stroke-miterlimit="10" stroke-linecap="round"/>
<path d="M18.4929 10.2667C18.0796 10.1467 17.6529 10.0533 17.2129 10C15.9329 9.84 14.7062 9.93334 13.5596 10.2667C13.9462 9.28 14.9062 8.58667 16.0262 8.58667C17.1462 8.58667 18.1062 9.28 18.4929 10.2667Z" stroke="white" stroke-width="1.5" stroke-miterlimit="10" stroke-linecap="round" stroke-linejoin="round"/>
<path d="M20.0264 31.4133C20.0264 33.6133 18.2264 35.4133 16.0264 35.4133C14.933 35.4133 13.9197 34.96 13.1997 34.24C12.4797 33.52 12.0264 32.5067 12.0264 31.4133" stroke="white" stroke-width="1.5" stroke-miterlimit="10"/>
</svg>
