<svg width="187" height="17" viewBox="0 0 187 17" fill="none" xmlns="http://www.w3.org/2000/svg">
<path d="M164.957 1.49296V15.5073C164.957 15.7856 165.193 16 165.472 16H167.469C167.748 16 167.963 15.7856 167.963 15.5073V6.1001C167.963 5.82151 168.113 5.75706 168.285 5.97143C170.583 8.60718 172.859 11.2429 175.156 13.9002C175.242 13.9857 175.371 14.0499 175.478 14.0499C175.607 14.0499 175.714 13.9857 175.8 13.9002C178.098 11.2429 180.374 8.60718 182.671 5.97143C182.843 5.75706 182.993 5.82151 182.993 6.07862V15.5073C182.993 15.7856 183.208 16 183.487 16H185.506C185.763 16 185.999 15.7856 185.999 15.5073V1.49296C185.999 1.21437 185.784 1 185.506 1H183.487C183.208 1 182.843 1.17141 182.671 1.38577C180.266 4.14997 177.862 6.91438 175.478 9.67858L168.285 1.38577C168.092 1.12866 167.791 1 167.469 1H165.451C165.172 1 164.957 1.21437 164.957 1.49296Z" fill="#4F46E5" stroke="#4F46E5" stroke-width="0.507129" stroke-miterlimit="22.9256"/>
<path d="M147.781 15.5073C147.781 15.7856 147.996 16 148.275 16H150.293C150.573 16 150.787 15.7856 150.787 15.5073V13.4929C150.787 13.2143 151.002 13.0002 151.281 13.0002H159.312C159.591 13.0002 159.805 13.2143 159.805 13.4929V15.5073C159.805 15.7856 160.02 16 160.299 16H162.318C162.597 16 162.811 15.7856 162.811 15.5073V4.00004C162.811 2.34999 161.459 1 159.805 1H150.787C149.134 1 147.781 2.34999 147.781 4.00004V15.5073ZM158.391 4.00004C159.135 4.00004 159.805 4.67536 159.805 5.25074V8.74944C159.805 9.32481 159.134 9.99991 158.391 9.99991H152.202C151.459 9.99991 150.787 9.32569 150.787 8.74944V5.25074C150.787 4.67449 151.458 4.00004 152.202 4.00004H158.391Z" fill="#4F46E5" stroke="#4F46E5" stroke-width="0.507129" stroke-miterlimit="22.9256"/>
<path d="M132.084 13.0002C132.084 14.65 133.437 16 135.09 16H145.117C145.397 16 145.611 15.7856 145.611 15.5073V13.4929C145.611 13.2143 145.397 13.0002 145.117 13.0002H135.584C135.305 13.0002 135.09 12.7858 135.09 12.507V10.4931C135.09 10.2143 135.305 9.99991 135.584 9.99991H145.117C145.397 9.99991 145.611 9.78576 145.611 9.50718V7.49283C145.611 7.21445 145.397 7.00009 145.117 7.00009H135.584C135.305 7.00009 135.09 6.78572 135.09 6.50735V4.493C135.09 4.21441 135.305 4.00004 135.584 4.00004H145.117C145.397 4.00004 145.611 3.7859 145.611 3.50731V1.49296C145.611 1.21437 145.397 1 145.117 1H135.09C133.437 1 132.084 2.34999 132.084 4.00004V13.0002Z" fill="#4F46E5" stroke="#4F46E5" stroke-width="0.507129" stroke-miterlimit="22.9256"/>
<path d="M115.314 1.49296V3.50731C115.314 3.7859 115.529 4.00004 115.808 4.00004H120.833C121.112 4.00004 121.326 4.21441 121.326 4.493V15.5073C121.326 15.7856 121.541 16 121.82 16H123.839C124.118 16 124.333 15.7856 124.333 15.5073V4.493C124.333 4.21441 124.547 4.00004 124.826 4.00004H129.851C130.13 4.00004 130.344 3.7859 130.344 3.50731V1.49296C130.344 1.21437 130.13 1 129.851 1H115.808C115.529 1 115.314 1.21437 115.314 1.49296Z" fill="#4F46E5" stroke="#4F46E5" stroke-width="0.507129" stroke-miterlimit="22.9256"/>
<path d="M98.1152 1.49296V3.50731C98.1152 3.7859 98.33 4.00004 98.6094 4.00004H103.634C103.913 4.00004 104.127 4.21441 104.127 4.493V15.5073C104.127 15.7856 104.342 16 104.621 16H106.64C106.919 16 107.133 15.7856 107.133 15.5073V4.493C107.133 4.21441 107.348 4.00004 107.627 4.00004H112.652C112.931 4.00004 113.145 3.7859 113.145 3.50731V1.49296C113.145 1.21437 112.931 1 112.652 1H98.6094C98.33 1 98.1152 1.21437 98.1152 1.49296Z" fill="#4F46E5" stroke="#4F46E5" stroke-width="0.507129" stroke-miterlimit="22.9256"/>
<path d="M67.3691 13.0002C67.3691 14.65 68.7218 16 70.3754 16H80.4025C80.6817 16 80.8965 15.7856 80.8965 15.5073V13.4929C80.8965 13.2143 80.6817 13.0002 80.4025 13.0002H70.8692C70.5898 13.0002 70.3754 12.7858 70.3754 12.507V10.4931C70.3754 10.2143 70.5898 9.99991 70.8692 9.99991H80.4025C80.6817 9.99991 80.8965 9.78576 80.8965 9.50718V7.49283C80.8965 7.21445 80.6817 7.00009 80.4025 7.00009H70.8692C70.5898 7.00009 70.3754 6.78572 70.3754 6.50735V4.493C70.3754 4.21441 70.5898 4.00004 70.8692 4.00004H80.4025C80.6817 4.00004 80.8965 3.7859 80.8965 3.50731V1.49296C80.8965 1.21437 80.6817 1 80.4025 1H70.3754C68.7218 1 67.3691 2.34999 67.3691 4.00004V13.0002Z" fill="#4F46E5" stroke="#4F46E5" stroke-width="0.507129" stroke-miterlimit="22.9256"/>
<path d="M50.6211 15.5073C50.6211 15.7644 50.8574 16 51.1364 16H53.1333C53.4124 16 53.6272 15.7644 53.6272 15.5073V6.1001C53.6272 5.82151 53.7774 5.75706 53.9707 5.97143C56.7405 9.18584 59.532 12.4215 62.3233 15.6142C62.495 15.8286 62.8814 16 63.139 16H65.1574C65.4368 16 65.6514 15.7644 65.6514 15.5073V1.49296C65.6514 1.23563 65.4368 1 65.1574 1H63.139C62.8814 1 62.6453 1.23563 62.6453 1.49296V10.9214C62.6453 10.9858 62.6024 11.0715 62.5381 11.0928C62.452 11.1143 62.3876 11.0928 62.3233 11.0286L53.9707 1.38577C53.7561 1.15014 53.4555 1 53.1333 1H51.1364C50.8574 1 50.6211 1.23563 50.6211 1.49296C50.6426 6.16432 50.6211 10.8357 50.6211 15.5073Z" fill="#4F46E5" stroke="#4F46E5" stroke-width="0.507129" stroke-miterlimit="22.9256"/>
<path d="M33.4434 15.5073C33.4434 15.7644 33.6797 16 33.9586 16H35.9555C36.2347 16 36.4495 15.7644 36.4495 15.5073V6.1001C36.4495 5.82151 36.5997 5.75706 36.793 5.97143C39.5627 9.18584 42.354 12.4215 45.1456 15.6142C45.3171 15.8286 45.7036 16 45.9613 16H47.9797C48.259 16 48.4734 15.7644 48.4734 15.5073V1.49296C48.4734 1.23563 48.259 1 47.9797 1H45.9613C45.7036 1 45.4675 1.23563 45.4675 1.49296V10.9214C45.4675 10.9858 45.4247 11.0715 45.3603 11.0928C45.2742 11.1143 45.2099 11.0928 45.1456 11.0286L36.793 1.38577C36.5784 1.15014 36.2775 1 35.9555 1H33.9586C33.6797 1 33.4434 1.23563 33.4434 1.49296C33.4649 6.16432 33.4434 10.8357 33.4434 15.5073Z" fill="#4F46E5" stroke="#4F46E5" stroke-width="0.507129" stroke-miterlimit="22.9256"/>
<path d="M16.2656 13.0002C16.2656 14.65 17.6183 16 19.2717 16H28.2898C29.943 16 31.2957 14.65 31.2957 13.0002V4.00004C31.2957 2.34999 29.943 1 28.2898 1H19.2717C17.6183 1 16.2656 2.34999 16.2656 4.00004V13.0002ZM21.0178 13.0002C20.2847 13.0002 19.2717 12.5346 19.2717 11.5765V5.42368C19.2717 4.4656 20.2833 4.00004 21.0178 4.00004H26.5437C27.2782 4.00004 28.2898 4.46626 28.2898 5.42368V11.5765C28.2898 12.534 27.2775 13.0002 26.5437 13.0002H21.0178Z" fill="#4F46E5" stroke="#4F46E5" stroke-width="0.507129" stroke-miterlimit="22.9256"/>
<path d="M1 13.0002C1 14.65 2.35269 16 4.00608 16H14.0334C14.3125 16 14.5273 15.7856 14.5273 15.5073V13.4929C14.5273 13.2143 14.3121 13.0002 14.0334 13.0002H6.43828C4.20595 13.0002 4.00608 11.0503 4.00608 10.5751V6.42515C4.00608 5.71126 4.19672 4.00004 6.43828 4.00004H14.0334C14.3125 4.00004 14.5273 3.7859 14.5273 3.50731V1.49296C14.5273 1.21437 14.3125 1 14.0334 1H4.00608C2.35269 1 1 2.34999 1 4.00004V13.0002Z" fill="#4F46E5" stroke="#4F46E5" stroke-width="0.507129" stroke-miterlimit="22.9256"/>
<path d="M82.6348 13.0002C82.6348 14.65 83.9875 16 85.6408 16H95.6681C95.9473 16 96.1621 15.7856 96.1621 15.5073V13.4929C96.1621 13.2143 95.9469 13.0002 95.6681 13.0002H88.0728C85.8407 13.0002 85.6408 11.0503 85.6408 10.5751V6.42515C85.6408 5.71126 85.8313 4.00004 88.0728 4.00004H95.6681C95.9473 4.00004 96.1621 3.7859 96.1621 3.50731V1.49296C96.1621 1.21437 95.9473 1 95.6681 1H85.6408C83.9875 1 82.6348 2.34999 82.6348 4.00004V13.0002Z" fill="#4F46E5" stroke="#4F46E5" stroke-width="0.507129" stroke-miterlimit="22.9256"/>
</svg>
