<svg xmlns="http://www.w3.org/2000/svg" width="50" height="40" viewBox="0 0 50 37" fill="none">
<path d="M14.9019 9.40788L9.41081 14.8989L5.94594 11.434L11.437 5.94301L14.9019 9.40788ZM24.5888 5.94301L21.1239 9.40788L20.9598 9.25187L20.7905 9.10674L20.6161 8.972L20.4371 8.84758L20.253 8.73289L20.0647 8.62825L19.8724 8.53361L19.6764 8.44883L19.4766 8.37385L19.2734 8.30861L19.0678 8.25342L18.8596 8.20816L18.6496 8.1729L18.4383 8.14769L18.2259 8.1326L18.0129 8.12751L17.7999 8.1326L17.5875 8.14769L17.3762 8.1729L17.1662 8.20816L16.958 8.25342L16.7525 8.30861L16.5492 8.37385L16.3495 8.44883L16.1534 8.53361L15.9612 8.62825L15.7728 8.73289L15.5887 8.84758L15.4097 8.972L15.2353 9.10674L15.066 9.25187L14.9019 9.40788L11.437 5.94301L11.7821 5.61512L12.1407 5.30766L12.5115 5.0209L12.8939 4.75515L13.286 4.51087L13.6876 4.28762L14.0976 4.0857L14.515 3.90512L14.9387 3.74607L15.3676 3.60836L15.8017 3.4918L16.2393 3.39665L16.6799 3.32257L17.1232 3.26977L17.5677 3.23805L18.0129 3.22754L18.4581 3.23805L18.9027 3.26977L19.3459 3.32257L19.7865 3.39665L20.2242 3.4918L20.6582 3.60836L21.0872 3.74607L21.5108 3.90512L21.9282 4.0857L22.3383 4.28762L22.7398 4.51087L23.1319 4.75515L23.5143 5.0209L23.8851 5.30766L24.2437 5.61512L24.5888 5.94301ZM26.6149 14.8989L21.1239 9.40788L24.5888 5.94301L30.0798 11.434L26.6149 14.8989ZM30.0798 24.5858L26.6149 21.1209L26.771 20.9568L26.9161 20.7875L27.0508 20.6131L27.1752 20.4341L27.2899 20.25L27.3946 20.0617L27.4891 19.8696L27.5739 19.6734L27.649 19.4734L27.7142 19.2704L27.7694 19.0648L27.8147 18.8566L27.8499 18.6466L27.8751 18.4353L27.8902 18.2229L27.8953 18.0099L27.8902 17.7969L27.8751 17.5845L27.8499 17.3732L27.8147 17.1632L27.7694 16.955L27.7142 16.7495L27.649 16.5464L27.5739 16.3465L27.4891 16.1502L27.3946 15.9582L27.2899 15.7698L27.1752 15.5857L27.0508 15.4067L26.9161 15.2324L26.771 15.0631L26.6149 14.8989L30.0798 11.434L30.4077 11.7791L30.7152 12.1377L31.0019 12.5085L31.2677 12.8909L31.512 13.283L31.7352 13.6846L31.9372 14.0948L32.1176 14.512L32.2767 14.9355L32.4145 15.3646L32.531 15.7987L32.6262 16.2363L32.7002 16.6769L32.7531 17.1202L32.7848 17.5647L32.7953 18.0099L32.7848 18.4551L32.7531 18.8997L32.7002 19.3429L32.6262 19.7835L32.531 20.2212L32.4145 20.6552L32.2767 21.0844L32.1176 21.5078L31.9372 21.925L31.7352 22.3353L31.512 22.7368L31.2677 23.1289L31.0019 23.5113L30.7152 23.8822L30.4077 24.2407L30.0798 24.5858ZM21.1239 26.6119L26.6149 21.1209L30.0798 24.5858L24.5888 30.0768L21.1239 26.6119ZM11.437 30.0768L14.9019 26.6119L15.066 26.768L15.2353 26.9131L15.4097 27.0478L15.5887 27.1722L15.7728 27.2869L15.9612 27.3916L16.1534 27.4862L16.3495 27.571L16.5492 27.646L16.7525 27.7112L16.958 27.7664L17.1662 27.8117L17.3762 27.8469L17.5875 27.8721L17.7999 27.8872L18.0129 27.8923L18.2259 27.8872L18.4383 27.8721L18.6496 27.8469L18.8596 27.8117L19.0678 27.7664L19.2734 27.7112L19.4766 27.646L19.6764 27.571L19.8724 27.4862L20.0647 27.3916L20.253 27.2869L20.4371 27.1722L20.6161 27.0478L20.7905 26.9131L20.9598 26.768L21.1239 26.6119L24.5888 30.0768L24.2437 30.4047L23.8851 30.7122L23.5143 30.9989L23.1319 31.2647L22.7398 31.5089L22.3383 31.7322L21.9282 31.9341L21.5108 32.1147L21.0872 32.2737L20.6582 32.4115L20.2242 32.528L19.7865 32.6232L19.3459 32.6973L18.9027 32.7501L18.4581 32.7818L18.0129 32.7923L17.5677 32.7818L17.1232 32.7501L16.6799 32.6973L16.2393 32.6232L15.8017 32.528L15.3676 32.4115L14.9387 32.2737L14.515 32.1147L14.0976 31.9341L13.6876 31.7322L13.286 31.5089L12.8939 31.2647L12.5115 30.9989L12.1407 30.7122L11.7821 30.4047L11.437 30.0768ZM9.41081 21.1209L14.9019 26.6119L11.437 30.0768L5.94594 24.5858L9.41081 21.1209ZM5.94594 11.434L9.41081 14.8989L9.2548 15.0631L9.10967 15.2324L8.97493 15.4067L8.8505 15.5857L8.73588 15.7698L8.63118 15.9582L8.53654 16.1504L8.45176 16.3465L8.37678 16.5462L8.31154 16.7495L8.25635 16.955L8.21109 17.1632L8.17583 17.3732L8.15068 17.5845L8.13553 17.7969L8.13044 18.0099L8.13553 18.2229L8.15068 18.4353L8.17583 18.6466L8.21109 18.8566L8.25635 19.0648L8.31154 19.2704L8.37678 19.4736L8.45176 19.6734L8.53654 19.8694L8.63118 20.0617L8.73588 20.25L8.8505 20.4341L8.97493 20.6131L9.10967 20.7875L9.2548 20.9568L9.41081 21.1209L5.94594 24.5858L5.61805 24.2407L5.31059 23.8822L5.02383 23.5113L4.75808 23.1289L4.51374 22.7368L4.29055 22.3353L4.08863 21.9252L3.90805 21.5078L3.749 21.0842L3.61129 20.6552L3.49473 20.2212L3.39957 19.7835L3.3255 19.3429L3.27263 18.8997L3.24098 18.4551L3.23047 18.0099L3.24098 17.5647L3.27263 17.1202L3.3255 16.6769L3.39957 16.2363L3.49473 15.7987L3.61129 15.3646L3.749 14.9357L3.90805 14.512L4.08863 14.0946L4.29055 13.6846L4.51374 13.283L4.75808 12.8909L5.02383 12.5085L5.31059 12.1377L5.61805 11.7791L5.94594 11.434Z" fill="#6366F1"/>
<path d="M28.6207 9.40788L23.1296 14.8989L19.6647 11.434L25.1558 5.94301L28.6207 9.40788ZM38.3075 5.94301L34.8426 9.40788L34.6785 9.25187L34.5092 9.10674L34.3349 8.972L34.1559 8.84758L33.9717 8.73289L33.7834 8.62825L33.5912 8.53361L33.3951 8.44883L33.1953 8.37385L32.9921 8.30861L32.7866 8.25342L32.5783 8.20816L32.3684 8.1729L32.1571 8.14769L31.9447 8.1326L31.7317 8.12751L31.5186 8.1326L31.3062 8.14769L31.0949 8.1729L30.885 8.20816L30.6767 8.25342L30.4712 8.30861L30.268 8.37385L30.0682 8.44883L29.8721 8.53361L29.6799 8.62825L29.4916 8.73289L29.3075 8.84758L29.1284 8.972L28.9541 9.10674L28.7848 9.25187L28.6207 9.40788L25.1558 5.94301L25.5008 5.61512L25.8594 5.30766L26.2302 5.0209L26.6126 4.75515L27.0047 4.51087L27.4063 4.28762L27.8163 4.0857L28.2338 3.90512L28.6574 3.74607L29.0864 3.60836L29.5204 3.4918L29.958 3.39665L30.3987 3.32257L30.8419 3.26977L31.2864 3.23805L31.7317 3.22754L32.1769 3.23805L32.6214 3.26977L33.0646 3.32257L33.5053 3.39665L33.9429 3.4918L34.3769 3.60836L34.8059 3.74607L35.2295 3.90512L35.647 4.0857L36.057 4.28762L36.4586 4.51087L36.8507 4.75515L37.2331 5.0209L37.6039 5.30766L37.9625 5.61512L38.3075 5.94301ZM40.3337 14.8989L34.8426 9.40788L38.3075 5.94301L43.7986 11.434L40.3337 14.8989ZM43.7986 24.5858L40.3337 21.1209L40.4897 20.9568L40.6348 20.7875L40.7696 20.6131L40.894 20.4341L41.0086 20.25L41.1133 20.0617L41.2078 19.8696L41.2927 19.6734L41.3678 19.4734L41.433 19.2704L41.4881 19.0648L41.5334 18.8566L41.5687 18.6466L41.5938 18.4353L41.609 18.2229L41.6141 18.0099L41.609 17.7969L41.5938 17.5845L41.5687 17.3732L41.5334 17.1632L41.4881 16.955L41.433 16.7495L41.3678 16.5464L41.2927 16.3465L41.2078 16.1502L41.1133 15.9582L41.0086 15.7698L40.894 15.5857L40.7696 15.4067L40.6348 15.2324L40.4897 15.0631L40.3337 14.8989L43.7986 11.434L44.1264 11.7791L44.4339 12.1377L44.7207 12.5085L44.9864 12.8909L45.2308 13.283L45.4539 13.6846L45.656 14.0948L45.8364 14.512L45.9954 14.9355L46.1332 15.3646L46.2498 15.7987L46.3449 16.2363L46.419 16.6769L46.4719 17.1202L46.5035 17.5647L46.514 18.0099L46.5035 18.4551L46.4719 18.8997L46.419 19.3429L46.3449 19.7835L46.2498 20.2212L46.1332 20.6552L45.9954 21.0844L45.8364 21.5078L45.656 21.925L45.4539 22.3353L45.2308 22.7368L44.9864 23.1289L44.7207 23.5113L44.4339 23.8822L44.1264 24.2407L43.7986 24.5858ZM34.8426 26.6119L40.3337 21.1209L43.7986 24.5858L38.3075 30.0768L34.8426 26.6119ZM25.1558 30.0768L28.6207 26.6119L28.7848 26.768L28.9541 26.9131L29.1284 27.0478L29.3075 27.1722L29.4916 27.2869L29.6799 27.3916L29.8721 27.4862L30.0682 27.571L30.268 27.646L30.4712 27.7112L30.6767 27.7664L30.885 27.8117L31.0949 27.8469L31.3062 27.8721L31.5186 27.8872L31.7317 27.8923L31.9447 27.8872L32.1571 27.8721L32.3684 27.8469L32.5783 27.8117L32.7866 27.7664L32.9921 27.7112L33.1953 27.646L33.3951 27.571L33.5912 27.4862L33.7834 27.3916L33.9717 27.2869L34.1559 27.1722L34.3349 27.0478L34.5092 26.9131L34.6785 26.768L34.8426 26.6119L38.3075 30.0768L37.9625 30.4047L37.6039 30.7122L37.2331 30.9989L36.8507 31.2647L36.4586 31.5089L36.057 31.7322L35.647 31.9341L35.2295 32.1147L34.8059 32.2737L34.3769 32.4115L33.9429 32.528L33.5053 32.6232L33.0646 32.6973L32.6214 32.7501L32.1769 32.7818L31.7317 32.7923L31.2864 32.7818L30.8419 32.7501L30.3987 32.6973L29.958 32.6232L29.5204 32.528L29.0864 32.4115L28.6574 32.2737L28.2338 32.1147L27.8163 31.9341L27.4063 31.7322L27.0047 31.5089L26.6126 31.2647L26.2302 30.9989L25.8594 30.7122L25.5008 30.4047L25.1558 30.0768ZM23.1296 21.1209L28.6207 26.6119L25.1558 30.0768L19.6647 24.5858L23.1296 21.1209ZM19.6647 11.434L23.1296 14.8989L22.9735 15.0631L22.8284 15.2324L22.6937 15.4067L22.5693 15.5857L22.4546 15.7698L22.3499 15.9582L22.2553 16.1504L22.1705 16.3465L22.0955 16.5462L22.0303 16.7495L21.9751 16.955L21.9298 17.1632L21.8946 17.3732L21.8694 17.5845L21.8543 17.7969L21.8492 18.0099L21.8543 18.2229L21.8694 18.4353L21.8946 18.6466L21.9298 18.8566L21.9751 19.0648L22.0303 19.2704L22.0955 19.4736L22.1705 19.6734L22.2553 19.8694L22.3499 20.0617L22.4546 20.25L22.5693 20.4341L22.6937 20.6131L22.8284 20.7875L22.9735 20.9568L23.1296 21.1209L19.6647 24.5858L19.3368 24.2407L19.0293 23.8822L18.7426 23.5113L18.4768 23.1289L18.2325 22.7368L18.0093 22.3353L17.8074 21.9252L17.6268 21.5078L17.4677 21.0842L17.33 20.6552L17.2135 20.2212L17.1183 19.7835L17.0442 19.3429L16.9914 18.8997L16.9597 18.4551L16.9492 18.0099L16.9597 17.5647L16.9914 17.1202L17.0442 16.6769L17.1183 16.2363L17.2135 15.7987L17.33 15.3646L17.4677 14.9357L17.6268 14.512L17.8074 14.0946L18.0093 13.6846L18.2325 13.283L18.4768 12.8909L18.7426 12.5085L19.0293 12.1377L19.3368 11.7791L19.6647 11.434Z" fill="#4338CA"/>
<path d="M21.125 26.614L26.616 21.123L30.0809 24.5879L24.5899 30.0789L21.125 26.614Z" fill="#6366F1"/>
<path fill-rule="evenodd" clip-rule="evenodd" d="M1.62356 1.62363L1.62363 1.62356C2.83779 0.409334 4.82462 0.409334 6.03878 1.62356L6.03885 1.62363C7.25307 2.83785 7.25307 4.82462 6.03885 6.03878L6.03878 6.03885C4.82462 7.25307 2.83779 7.25307 1.62363 6.03885L1.62356 6.03878C0.409334 4.82462 0.409334 2.83785 1.62356 1.62363Z" fill="#6366F1"/>
<path d="M2.12744 2.12738L2.12738 2.12744L1.11946 1.11952L1.11952 1.11945L2.12744 2.12738ZM6.5426 1.11945L5.53468 2.12738L5.44487 2.04202L5.35223 1.96259L5.25649 1.88864L5.15804 1.82018L5.05715 1.75732L4.95374 1.69988L4.84807 1.64785L4.74041 1.60124L4.63094 1.56017L4.51973 1.52446L4.4071 1.49422L4.29344 1.46946L4.17868 1.45025L4.06328 1.43645L3.94724 1.4282L3.83106 1.42543L3.71489 1.4282L3.59884 1.43645L3.48344 1.45025L3.36868 1.46946L3.25502 1.49422L3.14239 1.52446L3.03118 1.56017L2.92171 1.60124L2.81405 1.64785L2.70838 1.69988L2.60497 1.75732L2.50408 1.82018L2.40563 1.88864L2.30989 1.96259L2.21725 2.04202L2.12744 2.12738L1.11952 1.11945L1.26181 0.984196L1.40976 0.857321L1.56249 0.739276L1.71986 0.629806L1.88162 0.529037L2.04718 0.437039L2.21602 0.353939L2.3879 0.279604L2.56261 0.213909L2.73958 0.157177L2.91836 0.109146L3.09907 0.0698183L3.281 0.0392612L3.46384 0.0174711L3.64719 0.00444805L3.83106 0L4.01493 0.00444805L4.19828 0.0174711L4.38112 0.0392612L4.56305 0.0698183L4.74376 0.109146L4.92254 0.157177L5.09951 0.213909L5.27422 0.279604L5.4461 0.353939L5.61494 0.437039L5.7805 0.529037L5.94226 0.629806L6.09963 0.739276L6.25236 0.857321L6.40032 0.984196L6.5426 1.11945ZM5.53474 2.12744L5.53468 2.12738L6.5426 1.11945L6.54266 1.11952L5.53474 2.12744ZM6.54266 6.5426L5.53474 5.53468L5.6201 5.44487L5.69953 5.35223L5.77347 5.25649L5.84194 5.15804L5.9048 5.05715L5.96224 4.95374L6.01427 4.84807L6.06088 4.74041L6.10201 4.63087L6.13767 4.51979L6.1679 4.40716L6.19266 4.29344L6.21187 4.17874L6.22567 4.06328L6.23385 3.94736L6.23663 3.83106L6.23385 3.71482L6.22567 3.59884L6.21187 3.48344L6.19266 3.36875L6.1679 3.25502L6.13767 3.14239L6.10201 3.03131L6.06082 2.92177L6.01427 2.81398L5.96231 2.70844L5.90486 2.6051L5.84194 2.50407L5.77341 2.40557L5.69953 2.30989L5.6201 2.21725L5.53474 2.12744L6.54266 1.11952L6.67792 1.2618L6.8048 1.40976L6.92291 1.56256L7.03231 1.71999L7.13302 1.88162L7.22501 2.04711L7.30818 2.21609L7.38258 2.38797L7.44815 2.56261L7.50494 2.73958L7.55297 2.91849L7.5923 3.09913L7.62286 3.281L7.64465 3.46384L7.65774 3.64738L7.66206 3.83106L7.65774 4.0148L7.64465 4.19828L7.62286 4.38118L7.5923 4.56305L7.55297 4.74369L7.50494 4.9226L7.44815 5.09957L7.38251 5.27422L7.30818 5.44609L7.22508 5.61494L7.13308 5.7805L7.03231 5.94225L6.92284 6.09963L6.8048 6.25236L6.67792 6.40032L6.54266 6.5426ZM5.53468 5.53474L5.53474 5.53468L6.54266 6.5426L6.5426 6.54266L5.53468 5.53474ZM1.11952 6.54266L2.12744 5.53474L2.21725 5.6201L2.30989 5.69953L2.40563 5.77347L2.50408 5.84194L2.60497 5.9048L2.70838 5.96224L2.81405 6.01427L2.92171 6.06088L3.03118 6.10195L3.14239 6.13767L3.25502 6.1679L3.36868 6.19265L3.48344 6.21187L3.59884 6.22566L3.71476 6.23385L3.83106 6.23662L3.94736 6.23385L4.06328 6.22566L4.17868 6.21187L4.29344 6.19265L4.4071 6.1679L4.51973 6.13767L4.63094 6.10195L4.74041 6.06088L4.84807 6.01427L4.95374 5.96224L5.05715 5.9048L5.15804 5.84194L5.25649 5.77347L5.35223 5.69953L5.44487 5.6201L5.53468 5.53474L6.5426 6.54266L6.40032 6.67792L6.25236 6.8048L6.09963 6.92284L5.94226 7.03231L5.7805 7.13308L5.61494 7.22508L5.4461 7.30818L5.27422 7.38251L5.09951 7.44821L4.92254 7.50494L4.74376 7.55297L4.56305 7.5923L4.38112 7.62286L4.19828 7.64465L4.0148 7.65773L3.83106 7.66206L3.64732 7.65773L3.46384 7.64465L3.281 7.62286L3.09907 7.5923L2.91836 7.55297L2.73958 7.50494L2.56261 7.44821L2.3879 7.38251L2.21602 7.30818L2.04718 7.22508L1.88162 7.13308L1.71986 7.03231L1.56249 6.92284L1.40976 6.8048L1.26181 6.67792L1.11952 6.54266ZM2.12738 5.53468L2.12744 5.53474L1.11952 6.54266L1.11946 6.5426L2.12738 5.53468ZM1.11946 1.11952L2.12738 2.12744L2.04202 2.21725L1.96259 2.30989L1.88871 2.40557L1.82018 2.50407L1.75726 2.6051L1.69981 2.70844L1.64785 2.81398L1.6013 2.92177L1.56011 3.03131L1.52446 3.14239L1.49422 3.25502L1.46946 3.36875L1.45025 3.48344L1.43645 3.59884L1.4282 3.71495L1.42543 3.83106L1.4282 3.94724L1.43645 4.06328L1.45025 4.17874L1.46946 4.29344L1.49422 4.40716L1.52446 4.51979L1.56011 4.63087L1.60124 4.74041L1.64785 4.84807L1.69988 4.95374L1.75732 5.05715L1.82018 5.15804L1.88865 5.25649L1.96259 5.35223L2.04202 5.44487L2.12738 5.53468L1.11946 6.5426L0.984198 6.40032L0.857321 6.25236L0.739276 6.09963L0.629807 5.94225L0.52904 5.7805L0.437042 5.61494L0.35394 5.44609L0.279606 5.27422L0.213976 5.09957L0.157178 4.9226L0.109148 4.74369L0.0698208 4.56305L0.0392621 4.38118L0.0174713 4.19828L0.00444824 4.01493L0 3.83106L0.00444824 3.64726L0.0174713 3.46384L0.0392621 3.281L0.0698208 3.09913L0.109148 2.91849L0.157178 2.73958L0.213976 2.56261L0.279541 2.38797L0.35394 2.21609L0.437106 2.04711L0.529105 1.88162L0.629807 1.71999L0.739212 1.56256L0.857321 1.40976L0.984198 1.2618L1.11946 1.11952Z" fill="#6366F1"/>
<path fill-rule="evenodd" clip-rule="evenodd" d="M43.7115 29.9918L43.7116 29.9918C44.9258 28.7775 46.9126 28.7775 48.1269 29.9918L48.127 29.9918C49.3412 31.2061 49.3412 33.193 48.127 34.4072L48.1269 34.4073C46.9126 35.6215 44.9258 35.6215 43.7116 34.4073L43.7115 34.4072C42.4972 33.193 42.4972 31.2061 43.7115 29.9918Z" fill="#4338CA"/>
<path d="M44.2153 30.4955L44.2153 30.4956L43.2073 29.4877L43.2074 29.4876L44.2154 30.4955H44.2153ZM48.6307 29.4876L47.6228 30.4955L47.533 30.4102L47.4403 30.3308L47.3446 30.2568L47.2462 30.1884L47.1452 30.1255L47.0416 30.068L46.936 30.0159L46.8284 29.9694L46.7189 29.9283L46.6077 29.8926L46.4952 29.8624L46.3813 29.8377L46.2666 29.8183L46.1512 29.8046L46.0353 29.7964L45.919 29.7936L45.8027 29.7964L45.6868 29.8046L45.5715 29.8183L45.4566 29.8377L45.3428 29.8624L45.2304 29.8926L45.1192 29.9283L45.0095 29.9695L44.902 30.0159L44.7965 30.068L44.693 30.1255L44.5918 30.1885L44.4935 30.2568L44.3979 30.3307L44.3051 30.4102L44.2154 30.4955L43.2073 29.4876L43.3497 29.3524L43.4975 29.2255L43.6504 29.1073L43.808 28.9978L43.9695 28.8972L44.1349 28.8053L44.3038 28.722L44.476 28.6476L44.6505 28.5821L44.8273 28.5253L45.0065 28.4772L45.187 28.4379L45.3688 28.4074L45.5518 28.3855L45.7353 28.3725L45.919 28.3682L46.1028 28.3725L46.2862 28.3855L46.4693 28.4074L46.6511 28.4379L46.8315 28.4772L47.0106 28.5253L47.1876 28.5821L47.3621 28.6476L47.5342 28.722L47.7031 28.8053L47.8685 28.8972L48.0301 28.9979L48.1876 29.1073L48.3404 29.2255L48.4884 29.3524L48.6307 29.4876ZM47.6228 30.4956L47.6228 30.4955L48.6307 29.4876L48.6308 29.4877L47.6228 30.4956ZM48.6308 34.911L47.6228 33.903L47.7082 33.8132L47.7876 33.7206L47.8615 33.6249L47.93 33.5264L47.9929 33.4254L48.0503 33.322L48.1023 33.2165L48.1489 33.1087L48.19 32.9992L48.2257 32.8881L48.2559 32.7753L48.2807 32.6617L48.3 32.547L48.3137 32.4316L48.3219 32.3156L48.3247 32.1994L48.3219 32.083L48.3137 31.9671L48.3 31.8517L48.2807 31.737L48.2559 31.6233L48.2257 31.5106L48.19 31.3994L48.1489 31.2899L48.1023 31.1821L48.0503 31.0766L47.9929 30.9733L47.93 30.8722L47.8615 30.7737L47.7876 30.6781L47.7082 30.5854L47.6228 30.4956L48.6308 29.4877L48.766 29.63L48.8929 29.7779L49.011 29.9307L49.1205 30.0882L49.2212 30.2498L49.3132 30.4153L49.3963 30.5842L49.4707 30.7561L49.5363 30.9308L49.5931 31.1079L49.6411 31.2866L49.6804 31.4672L49.7109 31.6492L49.7328 31.8321L49.7458 32.0157L49.7501 32.1994L49.7458 32.383L49.7328 32.5666L49.7109 32.7494L49.6804 32.9314L49.6411 33.112L49.5931 33.2908L49.5363 33.4678L49.4707 33.6425L49.3963 33.8144L49.3132 33.9834L49.2212 34.1489L49.1205 34.3105L49.011 34.4679L48.8929 34.6207L48.766 34.7687L48.6308 34.911ZM47.6228 33.9031L47.6228 33.903L48.6308 34.911L48.6307 34.911V34.9111L47.6228 33.9031ZM43.2074 34.911L44.2153 33.9031L44.3051 33.9885L44.3978 34.0679L44.4935 34.1418L44.592 34.2102L44.693 34.2732L44.7963 34.3306L44.9019 34.3826L45.0097 34.4292L45.1192 34.4703L45.2303 34.506L45.3429 34.5362L45.4566 34.5609L45.5714 34.5802L45.6868 34.594L45.8028 34.6022L45.919 34.6051L46.0352 34.6022L46.1512 34.594L46.2667 34.5802L46.3813 34.5609L46.4951 34.5362L46.6078 34.506L46.7189 34.4703L46.8283 34.4292L46.9362 34.3826L47.0418 34.3306L47.1452 34.2732L47.2461 34.2103L47.3446 34.1418L47.4404 34.0678L47.533 33.9885L47.6228 33.903L48.6307 34.9111L48.4884 35.0463L48.3404 35.1732L48.1876 35.2913L48.0303 35.4007L47.8685 35.5014L47.703 35.5934L47.534 35.6766L47.3622 35.7509L47.1876 35.8166L47.0105 35.8734L46.8317 35.9214L46.6511 35.9607L46.4691 35.9912L46.2862 36.0131L46.1029 36.0261L45.919 36.0305L45.7351 36.0261L45.5518 36.0131L45.369 35.9912L45.187 35.9607L45.0064 35.9214L44.8275 35.8734L44.6505 35.8166L44.4759 35.7509L44.304 35.6766L44.135 35.5934L43.9695 35.5014L43.8079 35.4007L43.6504 35.2913L43.4977 35.1732L43.3497 35.0463L43.2074 34.911ZM44.2153 33.903L44.2153 33.9031L43.2074 34.911L43.2073 34.911L44.2153 33.903V33.903ZM43.2073 29.4877L44.2153 30.4956V30.4957L44.1299 30.5854L44.0504 30.6782L43.9765 30.7737L43.9082 30.8721L43.8452 30.9733L43.7877 31.0767L43.7357 31.1823L43.6892 31.2898L43.6481 31.3994L43.6123 31.5107L43.5821 31.6231L43.5574 31.737L43.5381 31.8518L43.5243 31.9671L43.5161 32.083L43.5133 32.1994L43.5161 32.3156L43.5243 32.4316L43.5381 32.5468L43.5574 32.6617L43.5821 32.7755L43.6123 32.888L43.6481 32.9992L43.6892 33.1088L43.7357 33.2164L43.7877 33.3219L43.8452 33.4254L43.9082 33.5265L43.9765 33.6249L44.0504 33.7205L44.1299 33.8132L44.2153 33.903L43.2073 34.911L43.0721 34.7687L42.9453 34.6208L42.827 34.4679L42.7176 34.3104L42.6169 34.1489L42.525 33.9835L42.4418 33.8145L42.3673 33.6424L42.3018 33.4678L42.245 33.2909L42.1969 33.1118L42.1576 32.9314L42.1271 32.7495L42.1052 32.5666L42.0922 32.383L42.0879 32.1994L42.0922 32.0157L42.1052 31.8321L42.1271 31.6491L42.1576 31.4672L42.1969 31.2868L42.245 31.1077L42.3018 30.9308L42.3673 30.7563L42.4418 30.5841L42.525 30.4151L42.6169 30.2498L42.7176 30.0883L42.827 29.9307L42.9453 29.7778L43.0721 29.63L43.2073 29.4876V29.4877Z" fill="#4338CA"/>
</svg>
