<svg width="24" height="24" viewBox="0 0 24 24" fill="none" xmlns="http://www.w3.org/2000/svg">
<path d="M21.24 14.1977V14.2V16.8C21.24 18.2418 20.7926 19.3367 20.0597 20.0697C19.3267 20.8026 18.2318 21.25 16.79 21.25H7.2C5.75819 21.25 4.66353 20.8026 3.9307 20.0688C3.19777 19.3348 2.75 18.2374 2.75 16.79V14.2C2.75 12.7582 3.19739 11.6633 3.93033 10.9303C4.66327 10.1974 5.75817 9.75 7.2 9.75H10.5V15.25C10.5 16.0742 11.1758 16.75 12 16.75C12.8242 16.75 13.5 16.0742 13.5 15.25V9.75H16.8C18.242 9.75 19.3366 10.1975 20.0681 10.93C20.7994 11.6623 21.2445 12.7564 21.24 14.1977Z" fill="#F4F4F5" stroke="#F4F4F5" stroke-width="1.5"/>
<mask id="path-2-inside-1_404_35193" fill="white">
<path d="M12.7498 4.56043L14.8198 6.63043C14.9698 6.78043 15.1598 6.85043 15.3498 6.85043C15.5398 6.85043 15.7298 6.78043 15.8798 6.63043C16.1698 6.34043 16.1698 5.86043 15.8798 5.57043L12.5298 2.22043C12.2398 1.93043 11.7598 1.93043 11.4698 2.22043L8.11984 5.57043C7.82984 5.86043 7.82984 6.34043 8.11984 6.63043C8.40984 6.92043 8.88984 6.92043 9.17984 6.63043L11.2498 4.56043V9.00043H12.7498V4.56043Z"/>
</mask>
<path d="M12.7498 4.56043L14.8198 6.63043C14.9698 6.78043 15.1598 6.85043 15.3498 6.85043C15.5398 6.85043 15.7298 6.78043 15.8798 6.63043C16.1698 6.34043 16.1698 5.86043 15.8798 5.57043L12.5298 2.22043C12.2398 1.93043 11.7598 1.93043 11.4698 2.22043L8.11984 5.57043C7.82984 5.86043 7.82984 6.34043 8.11984 6.63043C8.40984 6.92043 8.88984 6.92043 9.17984 6.63043L11.2498 4.56043V9.00043H12.7498V4.56043Z" fill="#F4F4F5"/>
<path d="M12.7498 4.56043L13.8105 3.49977L11.2498 0.939109V4.56043H12.7498ZM14.8198 6.63043L13.7592 7.69109V7.69109L14.8198 6.63043ZM15.8798 5.57043L16.9405 4.50977L15.8798 5.57043ZM12.5298 2.22043L11.4692 3.28109L12.5298 2.22043ZM11.4698 2.22043L12.5305 3.28109L11.4698 2.22043ZM8.11984 5.57043L7.05918 4.50977L8.11984 5.57043ZM9.17984 6.63043L10.2405 7.69109L10.2405 7.69109L9.17984 6.63043ZM11.2498 4.56043H12.7498V0.939109L10.1892 3.49977L11.2498 4.56043ZM11.2498 9.00043H9.74984V10.5004H11.2498V9.00043ZM12.7498 9.00043V10.5004H14.2498V9.00043H12.7498ZM11.6892 5.62109L13.7592 7.69109L15.8805 5.56977L13.8105 3.49977L11.6892 5.62109ZM13.7592 7.69109C14.2053 8.13722 14.7835 8.35043 15.3498 8.35043V5.35043C15.5362 5.35043 15.7344 5.42364 15.8805 5.56977L13.7592 7.69109ZM15.3498 8.35043C15.9162 8.35043 16.4944 8.13722 16.9405 7.69109L14.8192 5.56977C14.9653 5.42364 15.1635 5.35043 15.3498 5.35043V8.35043ZM16.9405 7.69109C17.8163 6.8153 17.8163 5.38556 16.9405 4.50977L14.8192 6.63109C14.5234 6.3353 14.5234 5.86556 14.8192 5.56977L16.9405 7.69109ZM16.9405 4.50977L13.5905 1.15977L11.4692 3.28109L14.8192 6.63109L16.9405 4.50977ZM13.5905 1.15977C12.7147 0.283983 11.285 0.283983 10.4092 1.15977L12.5305 3.28109C12.2347 3.57688 11.765 3.57688 11.4692 3.28109L13.5905 1.15977ZM10.4092 1.15977L7.05918 4.50977L9.1805 6.63109L12.5305 3.28109L10.4092 1.15977ZM7.05918 4.50977C6.1834 5.38556 6.1834 6.8153 7.05918 7.69109L9.1805 5.56977C9.47629 5.86556 9.47629 6.3353 9.1805 6.63109L7.05918 4.50977ZM7.05918 7.69109C7.93497 8.56688 9.36472 8.56688 10.2405 7.69109L8.11918 5.56977C8.41497 5.27398 8.88472 5.27398 9.1805 5.56977L7.05918 7.69109ZM10.2405 7.69109L12.3105 5.62109L10.1892 3.49977L8.11918 5.56977L10.2405 7.69109ZM9.74984 4.56043V9.00043H12.7498V4.56043H9.74984ZM11.2498 10.5004H12.7498V7.50043H11.2498V10.5004ZM14.2498 9.00043V4.56043H11.2498V9.00043H14.2498Z" fill="#F4F4F5" mask="url(#path-2-inside-1_404_35193)"/>
</svg>
