<?xml version="1.0" standalone="no"?>
<!DOCTYPE svg PUBLIC "-//W3C//DTD SVG 20010904//EN"
 "http://www.w3.org/TR/2001/REC-SVG-20010904/DTD/svg10.dtd">
<svg version="1.0" xmlns="http://www.w3.org/2000/svg"
 width="100.000000pt" height="100.000000pt" viewBox="0 0 100.000000 100.000000"
 preserveAspectRatio="xMidYMid meet">
<metadata>
Created by potrace 1.14, written by Peter Selinger 2001-2017
</metadata>
<g transform="translate(0.000000,100.000000) scale(0.100000,-0.100000)"
fill="#000000" stroke="none">
<path d="M246 963 c-1 -1 -17 -5 -36 -8 -19 -3 -46 -13 -60 -22 -30 -20 -84
-73 -75 -73 4 0 1 -7 -6 -17 -11 -13 -14 -82 -16 -342 -1 -359 0 -365 63 -421
57 -51 73 -53 392 -52 399 0 367 -2 379 25 13 30 10 152 -5 170 -10 12 -57 14
-266 14 -275 0 -291 3 -330 56 -19 26 -21 43 -22 195 -1 127 2 174 13 198 28
58 34 59 323 62 315 3 299 -3 295 118 -3 77 -10 93 -45 94 -38 2 -602 5 -604
3z"/>
</g>
</svg>
