<svg width="16" height="16" viewBox="0 0 16 16" fill="none" xmlns="http://www.w3.org/2000/svg">
<path d="M2 0.5H14C14.8284 0.5 15.5 1.17157 15.5 2V14C15.5 14.8284 14.8284 15.5 14 15.5H2C1.17157 15.5 0.5 14.8284 0.5 14V2C0.5 1.17157 1.17157 0.5 2 0.5Z" fill="#A1A1AA" stroke="#A1A1AA"/>
<path d="M14 0H2C0.895431 0 0 0.89543 0 2V14C0 15.1046 0.89543 16 2 16H14C15.1046 16 16 15.1046 16 14V2C16 0.895431 15.1046 0 14 0Z" fill="#A1A1AA"/>
<path d="M6.00075 10.7796L3.68742 8.46623C3.56276 8.34158 3.3937 8.27155 3.21741 8.27155C3.04113 8.27155 2.87207 8.34158 2.74741 8.46623C2.62276 8.59088 2.55273 8.75995 2.55273 8.93623C2.55273 9.02352 2.56993 9.10995 2.60333 9.19059C2.63673 9.27123 2.68569 9.34451 2.74741 9.40623L5.53408 12.1929C5.79408 12.4529 6.21408 12.4529 6.47408 12.1929L13.5274 5.13956C13.6521 5.01491 13.7221 4.84585 13.7221 4.66956C13.7221 4.49328 13.6521 4.32422 13.5274 4.19956C13.4028 4.07491 13.2337 4.00488 13.0574 4.00488C12.8811 4.00488 12.7121 4.07491 12.5874 4.19956L6.00075 10.7796Z" fill="#D4D4D9"/>
</svg>
