<svg width="22" height="22" viewBox="0 0 22 22" fill="none" xmlns="http://www.w3.org/2000/svg">
<path d="M5 3.5H17C17.8284 3.5 18.5 4.17157 18.5 5V17C18.5 17.8284 17.8284 18.5 17 18.5H5C4.17157 18.5 3.5 17.8284 3.5 17V5C3.5 4.17157 4.17157 3.5 5 3.5Z" fill="#4F46E5" stroke="#4F46E5"/>
<path d="M17 1.5H5C3.067 1.5 1.5 3.067 1.5 5V17C1.5 18.933 3.067 20.5 5 20.5H17C18.933 20.5 20.5 18.933 20.5 17V5C20.5 3.067 18.933 1.5 17 1.5Z" stroke="#4F46E5" stroke-opacity="0.3" stroke-width="3"/>
<path d="M9.00075 13.7796L6.68742 11.4662C6.56276 11.3416 6.3937 11.2715 6.21741 11.2715C6.04113 11.2715 5.87207 11.3416 5.74741 11.4662C5.62276 11.5909 5.55273 11.7599 5.55273 11.9362C5.55273 12.0235 5.56993 12.1099 5.60333 12.1906C5.63673 12.2712 5.68569 12.3445 5.74741 12.4062L8.53408 15.1929C8.79408 15.4529 9.21408 15.4529 9.47408 15.1929L16.5274 8.13956C16.6521 8.01491 16.7221 7.84585 16.7221 7.66956C16.7221 7.49328 16.6521 7.32422 16.5274 7.19956C16.4028 7.07491 16.2337 7.00488 16.0574 7.00488C15.8811 7.00488 15.7121 7.07491 15.5874 7.19956L9.00075 13.7796Z" fill="#EBEFFF"/>
</svg>
