<svg width="32" height="32" viewBox="0 0 32 32" fill="none" xmlns="http://www.w3.org/2000/svg">
<path d="M15.5447 0C6.9607 0 0 7.34466 0 16.405C0 23.6533 4.45402 29.8026 10.6304 31.9718C11.4073 32.1236 11.6926 31.6159 11.6926 31.1826C11.6926 30.7915 11.6781 29.4991 11.6715 28.1283C7.3468 29.1207 6.43427 26.1927 6.43427 26.1927C5.72717 24.2965 4.70833 23.7924 4.70833 23.7924C3.29803 22.7742 4.81464 22.795 4.81464 22.795C6.37563 22.9108 7.19758 24.4856 7.19758 24.4856C8.58399 26.9936 10.834 26.2685 11.7211 25.8495C11.8606 24.789 12.2635 24.0654 12.708 23.6558C9.25537 23.2408 5.62574 21.8342 5.62574 15.5483C5.62574 13.7573 6.23299 12.2938 7.22745 11.1449C7.06603 10.7317 6.534 9.0632 7.37801 6.80351C7.37801 6.80351 8.68335 6.36259 11.6539 8.48512C12.8938 8.12152 14.2236 7.93934 15.5447 7.93316C16.8657 7.93934 18.1966 8.12152 19.4389 8.48512C22.4059 6.36259 23.7094 6.80351 23.7094 6.80351C24.5555 9.0632 24.0232 10.7317 23.8618 11.1449C24.8585 12.2938 25.4616 13.7572 25.4616 15.5483C25.4616 21.8491 21.8251 23.2366 18.3637 23.6426C18.9212 24.1518 19.418 25.1502 19.418 26.6806C19.418 28.8756 19.4 30.6422 19.4 31.1826C19.4 31.6192 19.6798 32.1307 20.4678 31.9696C26.6408 29.798 31.0892 23.6509 31.0892 16.405C31.0892 7.34466 24.1295 0 15.5447 0Z" fill="white"/>
<path d="M5.82211 23.3694C5.78797 23.4508 5.6663 23.4753 5.55572 23.4194C5.44295 23.3659 5.37956 23.2547 5.41613 23.1729C5.44966 23.089 5.57133 23.0656 5.68385 23.122C5.79687 23.1754 5.86124 23.2875 5.82211 23.3694ZM6.58675 24.0894C6.51263 24.1619 6.36767 24.1282 6.26929 24.0136C6.16761 23.8992 6.14859 23.7464 6.22381 23.6726C6.30025 23.6002 6.44082 23.634 6.54274 23.7485C6.64442 23.8642 6.66417 24.0162 6.58663 24.0895M7.11135 25.0106C7.01601 25.0804 6.86021 25.015 6.76402 24.8691C6.6688 24.7233 6.6688 24.5483 6.76609 24.4782C6.86264 24.4081 7.01601 24.4711 7.11354 24.6158C7.20864 24.7642 7.20864 24.9392 7.11123 25.0107M7.9984 26.0776C7.91318 26.1766 7.73177 26.1501 7.59888 26.0148C7.46307 25.8825 7.42516 25.6948 7.51062 25.5956C7.59681 25.4963 7.77932 25.5242 7.91318 25.6584C8.04814 25.7904 8.08922 25.9795 7.9984 26.0776ZM9.14488 26.4378C9.10745 26.5662 8.93263 26.6246 8.75658 26.5701C8.58078 26.5139 8.4657 26.3633 8.50117 26.2335C8.53775 26.1042 8.7133 26.0434 8.89069 26.1018C9.06625 26.1577 9.18145 26.3071 9.14488 26.4378ZM10.4499 26.5905C10.4542 26.7259 10.3049 26.8381 10.1201 26.8405C9.93415 26.8448 9.78383 26.7353 9.78188 26.6023C9.78188 26.4656 9.92781 26.3545 10.1136 26.3512C10.2984 26.3474 10.4499 26.4561 10.4499 26.5905ZM11.7317 26.5387C11.7538 26.6707 11.6253 26.8063 11.4419 26.8423C11.2614 26.8771 11.0944 26.7956 11.0714 26.6648C11.0489 26.5294 11.1799 26.394 11.3599 26.3588C11.5438 26.3251 11.7083 26.4045 11.7317 26.5387Z" fill="white"/>
</svg>
