<svg width="33" height="32" viewBox="0 0 33 32" fill="none" xmlns="http://www.w3.org/2000/svg">
<g clip-path="url(#clip0_205_11934)">
<path d="M31.819 16.3601C31.819 15.0401 31.7191 14.0801 31.4794 13.0801H16.479V19.0201H25.2875C25.1077 20.5001 24.149 22.7201 22.0118 24.2201L21.9918 24.4201L26.7256 28.1001L27.0452 28.1401C30.0813 25.3401 31.819 21.2201 31.819 16.3601Z" fill="#4285F4"/>
<path d="M16.4792 31.9999C20.7935 31.9999 24.4088 30.5799 27.0654 28.1199L22.0319 24.1999C20.6737 25.1399 18.876 25.7999 16.4991 25.7999C12.2647 25.7999 8.68933 22.9999 7.411 19.1599L7.23123 19.1799L2.2777 22.9999L2.21777 23.1799C4.83436 28.3999 10.2273 31.9999 16.4792 31.9999Z" fill="#34A853"/>
<path d="M7.39101 19.16C7.05146 18.16 6.85172 17.1 6.85172 16C6.85172 14.9 7.05146 13.84 7.37104 12.84V12.62L2.37755 8.73999L2.21776 8.81999C1.11919 10.98 0.5 13.42 0.5 16C0.5 18.58 1.11919 21.02 2.19779 23.18L7.39101 19.16Z" fill="#FBBC05"/>
<path d="M16.4791 6.18C19.4752 6.18 21.5126 7.48 22.6511 8.56L27.1652 4.16C24.3888 1.58 20.7935 0 16.4791 0C10.2273 0 4.83431 3.6 2.19775 8.82L7.37101 12.84C8.66931 8.98 12.2446 6.18 16.4791 6.18Z" fill="#EB4335"/>
</g>
<defs>
<clipPath id="clip0_205_11934">
<rect width="32" height="32" fill="white" transform="translate(0.5)"/>
</clipPath>
</defs>
</svg>
