<svg width="33" height="32" viewBox="0 0 33 32" fill="none" xmlns="http://www.w3.org/2000/svg">
<path d="M32.5 16C32.5 7.16344 25.3366 0 16.5 0C7.66344 0 0.5 7.16344 0.5 16C0.5 24.8366 7.66344 32 16.5 32C25.3366 32 32.5 24.8366 32.5 16Z" fill="#2787F5"/>
<path fill-rule="evenodd" clip-rule="evenodd" d="M25.8369 11.3926C25.9722 10.9695 25.837 10.6587 25.1933 10.6587H23.0651C22.524 10.6587 22.2745 10.9272 22.1392 11.2233C22.1392 11.2233 21.0569 13.698 19.5237 15.3054C19.0277 15.7707 18.8022 15.9188 18.5316 15.9188C18.3963 15.9188 18.2005 15.7707 18.2005 15.3477V11.3926C18.2005 10.8849 18.0435 10.6587 17.5925 10.6587H14.2481C13.9099 10.6587 13.7065 10.8943 13.7065 11.1176C13.7065 11.5988 14.4731 11.7098 14.5521 13.0634V16.0034C14.5521 16.648 14.428 16.7649 14.1574 16.7649C13.436 16.7649 11.6809 14.2791 10.6401 11.4348C10.4361 10.882 10.2315 10.6587 9.68754 10.6587H7.55931C6.95122 10.6587 6.82959 10.9272 6.82959 11.2233C6.82959 11.7521 7.55113 14.3748 10.1891 17.8435C11.9478 20.2124 14.4256 21.4965 16.6804 21.4965C18.0332 21.4965 18.2005 21.2113 18.2005 20.72V18.9297C18.2005 18.3592 18.3287 18.2454 18.7571 18.2454C19.0727 18.2454 19.6139 18.3935 20.8766 19.5356C22.3196 20.8892 22.5575 21.4965 23.3691 21.4965H25.4974C26.1055 21.4965 26.4095 21.2113 26.2341 20.6484C26.0422 20.0875 25.3532 19.2736 24.439 18.3088C23.943 17.7589 23.1989 17.1667 22.9734 16.8706C22.6578 16.4899 22.7479 16.3207 22.9734 15.9823C22.9734 15.9823 25.5664 12.5558 25.8369 11.3926Z" fill="white"/>
</svg>
